<mxfile host="app.diagrams.net" modified="2024-06-28T06:55:06.488Z" agent="Mozilla/5.0 (Windows NT 10.0; Win64; x64) AppleWebKit/537.36 (KHTML, like Gecko) Chrome/126.0.0.0 Safari/537.36" etag="oj9mKQl21-yZOlzv8__2" version="24.6.4" type="device">
  <diagram name="Page-1" id="aG2_OoBNvHqQvxG8nb_x">
    <mxGraphModel dx="1257" dy="620" grid="1" gridSize="10" guides="1" tooltips="1" connect="1" arrows="1" fold="1" page="1" pageScale="1" pageWidth="850" pageHeight="1100" math="0" shadow="0">
      <root>
        <mxCell id="0" />
        <mxCell id="1" parent="0" />
        <mxCell id="O5RSDXi4QWW96VrOZAca-1" value="Start" style="strokeWidth=2;html=1;shape=mxgraph.flowchart.terminator;whiteSpace=wrap;" vertex="1" parent="1">
          <mxGeometry x="368" y="10" width="115" height="57.5" as="geometry" />
        </mxCell>
        <mxCell id="O5RSDXi4QWW96VrOZAca-2" value="Input amount" style="html=1;strokeWidth=2;shape=manualInput;whiteSpace=wrap;rounded=1;size=13;arcSize=8;" vertex="1" parent="1">
          <mxGeometry x="375" y="110" width="100" height="50" as="geometry" />
        </mxCell>
        <mxCell id="O5RSDXi4QWW96VrOZAca-3" value="Amount is data type of number&amp;nbsp;&lt;div&gt;&amp;amp; amount &amp;gt; 0 ?&lt;/div&gt;" style="strokeWidth=2;html=1;shape=mxgraph.flowchart.decision;whiteSpace=wrap;" vertex="1" parent="1">
          <mxGeometry x="325" y="190" width="200" height="200" as="geometry" />
        </mxCell>
        <mxCell id="O5RSDXi4QWW96VrOZAca-4" value="New Balance = Balance + amount" style="rounded=0;whiteSpace=wrap;html=1;" vertex="1" parent="1">
          <mxGeometry x="365" y="420" width="120" height="60" as="geometry" />
        </mxCell>
        <mxCell id="O5RSDXi4QWW96VrOZAca-5" value="&lt;div&gt;Output&lt;/div&gt;new Balance" style="shape=parallelogram;perimeter=parallelogramPerimeter;whiteSpace=wrap;html=1;fixedSize=1;" vertex="1" parent="1">
          <mxGeometry x="365" y="510" width="120" height="60" as="geometry" />
        </mxCell>
        <mxCell id="O5RSDXi4QWW96VrOZAca-6" value="End" style="strokeWidth=2;html=1;shape=mxgraph.flowchart.terminator;whiteSpace=wrap;" vertex="1" parent="1">
          <mxGeometry x="368" y="610" width="115" height="57.5" as="geometry" />
        </mxCell>
        <mxCell id="O5RSDXi4QWW96VrOZAca-7" value="" style="endArrow=classic;html=1;rounded=0;exitX=0.5;exitY=1;exitDx=0;exitDy=0;exitPerimeter=0;entryX=0.5;entryY=0;entryDx=0;entryDy=0;" edge="1" parent="1" source="O5RSDXi4QWW96VrOZAca-1" target="O5RSDXi4QWW96VrOZAca-2">
          <mxGeometry width="50" height="50" relative="1" as="geometry">
            <mxPoint x="540" y="130" as="sourcePoint" />
            <mxPoint x="590" y="80" as="targetPoint" />
          </mxGeometry>
        </mxCell>
        <mxCell id="O5RSDXi4QWW96VrOZAca-8" value="" style="endArrow=classic;html=1;rounded=0;exitX=0.5;exitY=1;exitDx=0;exitDy=0;entryX=0.5;entryY=0;entryDx=0;entryDy=0;entryPerimeter=0;" edge="1" parent="1" source="O5RSDXi4QWW96VrOZAca-2" target="O5RSDXi4QWW96VrOZAca-3">
          <mxGeometry width="50" height="50" relative="1" as="geometry">
            <mxPoint x="500" y="180" as="sourcePoint" />
            <mxPoint x="550" y="130" as="targetPoint" />
          </mxGeometry>
        </mxCell>
        <mxCell id="O5RSDXi4QWW96VrOZAca-9" value="" style="endArrow=classic;html=1;rounded=0;exitX=0.5;exitY=1;exitDx=0;exitDy=0;exitPerimeter=0;entryX=0.5;entryY=0;entryDx=0;entryDy=0;" edge="1" parent="1" source="O5RSDXi4QWW96VrOZAca-3" target="O5RSDXi4QWW96VrOZAca-4">
          <mxGeometry width="50" height="50" relative="1" as="geometry">
            <mxPoint x="500" y="410" as="sourcePoint" />
            <mxPoint x="550" y="360" as="targetPoint" />
          </mxGeometry>
        </mxCell>
        <mxCell id="O5RSDXi4QWW96VrOZAca-10" value="" style="endArrow=classic;html=1;rounded=0;exitX=0.5;exitY=1;exitDx=0;exitDy=0;entryX=0.5;entryY=0;entryDx=0;entryDy=0;" edge="1" parent="1" source="O5RSDXi4QWW96VrOZAca-4" target="O5RSDXi4QWW96VrOZAca-5">
          <mxGeometry width="50" height="50" relative="1" as="geometry">
            <mxPoint x="460" y="510" as="sourcePoint" />
            <mxPoint x="510" y="460" as="targetPoint" />
          </mxGeometry>
        </mxCell>
        <mxCell id="O5RSDXi4QWW96VrOZAca-11" value="" style="endArrow=classic;html=1;rounded=0;exitX=0.5;exitY=1;exitDx=0;exitDy=0;entryX=0.5;entryY=0;entryDx=0;entryDy=0;entryPerimeter=0;" edge="1" parent="1" source="O5RSDXi4QWW96VrOZAca-5" target="O5RSDXi4QWW96VrOZAca-6">
          <mxGeometry width="50" height="50" relative="1" as="geometry">
            <mxPoint x="540" y="570" as="sourcePoint" />
            <mxPoint x="590" y="520" as="targetPoint" />
          </mxGeometry>
        </mxCell>
        <mxCell id="O5RSDXi4QWW96VrOZAca-12" value="Output&lt;div&gt;Amount must number and positive&lt;/div&gt;" style="shape=parallelogram;perimeter=parallelogramPerimeter;whiteSpace=wrap;html=1;fixedSize=1;" vertex="1" parent="1">
          <mxGeometry x="45" y="190" width="210" height="60" as="geometry" />
        </mxCell>
        <mxCell id="O5RSDXi4QWW96VrOZAca-15" value="" style="endArrow=classic;html=1;rounded=0;entryX=0.5;entryY=1;entryDx=0;entryDy=0;exitX=0;exitY=0.5;exitDx=0;exitDy=0;exitPerimeter=0;" edge="1" parent="1" source="O5RSDXi4QWW96VrOZAca-3" target="O5RSDXi4QWW96VrOZAca-12">
          <mxGeometry width="50" height="50" relative="1" as="geometry">
            <mxPoint x="310" y="290" as="sourcePoint" />
            <mxPoint x="200" y="250" as="targetPoint" />
            <Array as="points">
              <mxPoint x="150" y="290" />
            </Array>
          </mxGeometry>
        </mxCell>
        <mxCell id="O5RSDXi4QWW96VrOZAca-16" value="" style="endArrow=classic;html=1;rounded=0;exitX=0.5;exitY=0;exitDx=0;exitDy=0;entryX=0;entryY=0.5;entryDx=0;entryDy=0;" edge="1" parent="1" source="O5RSDXi4QWW96VrOZAca-12" target="O5RSDXi4QWW96VrOZAca-2">
          <mxGeometry width="50" height="50" relative="1" as="geometry">
            <mxPoint x="120" y="130" as="sourcePoint" />
            <mxPoint x="170" y="80" as="targetPoint" />
            <Array as="points">
              <mxPoint x="150" y="135" />
            </Array>
          </mxGeometry>
        </mxCell>
        <mxCell id="O5RSDXi4QWW96VrOZAca-17" value="Yes" style="text;html=1;align=center;verticalAlign=middle;whiteSpace=wrap;rounded=0;" vertex="1" parent="1">
          <mxGeometry x="410" y="390" width="60" height="30" as="geometry" />
        </mxCell>
        <mxCell id="O5RSDXi4QWW96VrOZAca-18" value="No" style="text;html=1;align=center;verticalAlign=middle;whiteSpace=wrap;rounded=0;" vertex="1" parent="1">
          <mxGeometry x="230" y="260" width="60" height="30" as="geometry" />
        </mxCell>
      </root>
    </mxGraphModel>
  </diagram>
</mxfile>
